<svg xmlns="http://www.w3.org/2000/svg" xml:space="preserve" width="290.547" height="141.73"><path fill="#FFF" d="M290.547 141.73h-141.73V0h141.73v141.73zm-140.366-1.362h139.003V1.364H150.181v139.004zm-8.451 1.362H0V0h141.73v141.73zM1.364 140.368h139.004V1.364H1.364v139.004z"/><path fill="#FFF" d="M23.126 62.355c1.08.59 2.354.982 3.826 1.276l1.275 5.886-5.886 25.31-2.649 1.864-7.356 31.588-5.985 4.61 16.775-70.534zm4.905.099c-5.493-.099-9.908-4.415-9.908-9.81 0-5.788 4.514-9.908 10.203-9.908 2.649 0 5.003 1.176 6.573 3.139-2.256-.294-4.414 1.276-5.101 3.042-.589-.196-1.08-.196-1.472-.196-2.256 0-4.021 1.766-4.021 3.924s1.766 4.022 4.021 4.022c2.257 0 3.63-1.767 3.63-4.022v-.393c.099-.098.294-.098.589-.098.392 0 .784.197.784.883 0 .785-.295 2.256-.295 3.728 0 1.373.295 2.354.688 3.335l3.335 13.93a6.576 6.576 0 0 0-1.374 1.473c-1.864.392-3.434 1.569-4.12 3.237l-3.532-16.286zm20.503 9.221c-2.845 0-4.611.196-6.573.196-3.042 0-5.297-1.276-5.983-3.728 1.177 0 2.06-.981 2.06-2.158 0-2.354-3.629-4.709-3.629-9.221 0-1.472.195-2.844.195-3.924 0-1.178-.98-1.962-2.059-1.962-.883 0-1.668.392-2.06.784-.197-2.747 2.06-4.806 4.904-4.61.393-.883 1.864-1.962 3.531-1.962 1.178 0 1.767.295 2.354.687.491-.196 1.08-.294 1.864-.294 2.257 0 4.709 1.864 4.709 4.708 0 2.649-1.569 3.924-3.139 5.003-.785.588-.981 1.177-.883 2.059.098 1.08.687 2.945.98 3.924.294.884.982 1.276 2.06 1.177 5.395-.392 13.146-.98 17.855-1.177 4.413-.195 7.553-.294 11.184-.49-6.868 1.667-10.792 6.279-11.872 12.853l-3.139 1.666c-.685-2.648-4.217-3.531-12.359-3.531zM44.119 98.26c1.178-.293 1.766-1.177 1.766-1.961 0-1.177-.688-1.963-1.569-2.551-1.472-.883-3.042-1.667-4.415-2.846-1.472-1.274-2.354-2.354-3.237-3.531-.686-.784-1.276-1.08-2.159-1.08-1.079 0-1.864.785-1.864 1.669 0 .491.099.882.295 1.177-1.472-.49-2.354-2.061-2.354-3.729 0-1.568.981-2.747 1.962-3.334a3.666 3.666 0 0 1-.197-1.178c0-2.06 1.668-4.022 4.316-4.218.491-1.374 1.961-2.452 3.924-2.452 2.354 0 4.807 1.766 4.807 4.905 0 1.568-.392 1.961-.392 3.139 0 .687.195 1.273 1.177 2.256 1.178 1.178 1.765 1.865 2.453 1.865.687 0 1.08-.297 1.864-.886 4.414-3.727 8.24-7.65 13.537-10.495.099 4.61 1.865 8.339 5.69 11.182l-3.336 2.552c-.587-.589-1.177-.784-1.962-.784-1.274 0-2.549.491-4.512 1.766-2.257 1.473-5.984 5.298-8.632 7.848-1.472 1.471-3.042 2.258-4.514 2.258-1.177-.001-2.156-.492-2.648-1.572zm-8.338-18.05c-1.275 0-2.157.687-2.354 1.472a5.954 5.954 0 0 1 1.472-.195c1.473 0 2.747.687 3.335 1.863.293-1.864-.785-3.14-2.453-3.14zm9.222 48.068L37.645 96.69l-2.649-1.864-1.275-6.082c-.197-.784.196-1.178.784-1.178.393 0 .688.198 1.08.589 1.275 1.473 2.06 2.354 3.434 3.532.785.688 1.766 1.275 2.747 1.765l6.082 26.39c-.981.882-1.667 2.256-1.667 3.727 0 1.081.294 2.061.785 2.944-.197.49-.295.981-.295 1.57 0 .587.098 1.177.393 1.765l-2.061-1.57zm-4.808-78.479c0-1.667-1.374-2.747-2.648-2.747-.589 0-.981.196-1.275.294 1.668.687 2.846 2.158 2.747 4.905.882-.588 1.176-1.569 1.176-2.452zm1.57 28.94c0-1.276-1.079-2.452-2.453-2.452-.785 0-1.274.293-1.569.489 1.864.393 3.335 1.963 3.434 3.924.294-.49.588-.981.588-1.961zm3.139-29.529c0-1.472-1.276-2.551-2.747-2.551.588.491 1.177 1.668 1.177 2.944 0 .587-.099 1.372-.491 2.255 1.178-.391 2.061-1.275 2.061-2.648zm3.139 78.873c0-.687.098-1.08.393-1.768-.492-.587-.884-1.568-.884-2.747 0-1.176.589-2.452 1.864-3.236-.392-2.942 1.962-4.905 4.611-4.905 2.942 0 4.414 2.061 4.904 4.121.393 1.471.981 1.963 1.668 2.059 1.276.198 3.335 0 4.121-.193.882-.198 1.274-.689 1.274-2.16.099-10.3-1.177-16.873-1.177-20.6 0-4.022 2.256-5.788 4.611-6.572 3.141-1.08 9.32-1.963 12.36-1.865 1.373 0 2.062.883 2.649 1.768 1.08 1.666 1.962 3.432 3.04 5.688-.784.394-1.176 1.08-1.176 2.06 0 1.374.785 2.552 1.865 3.142l-11.479.293c-.098.687-.098 1.373-.098 1.961 0 1.275.882 2.159 2.061 2.159.884 0 1.668-.295 2.353-.884.395 4.022-2.06 5.299-4.609 5.396.098 3.629.294 6.276.294 12.852 0 4.708-2.354 7.553-5.69 7.553.196-.196.295-.49.295-.785 0-1.862-2.061-2.747-3.532-2.747-2.943 0-4.513 2.355-7.75 2.355-2.844 0-4.021-2.355-6.18-2.355-1.373 0-2.354.885-2.354 2.061 0 .588.197 1.079.589 1.571-1.864-.003-4.023-1.771-4.023-4.222zm3.826-5.299c-1.863 0-2.844 1.472-2.648 2.649.393-.489 1.178-1.178 2.747-1.178a3.72 3.72 0 0 1 2.845 1.275c-.001-1.372-.982-2.746-2.944-2.746zm.883-4.513c-1.57 0-2.354.884-2.454 1.668.393-.196.982-.392 1.865-.392 1.569 0 2.844.882 3.237 1.766.198-1.57-.785-3.042-2.648-3.042zm12.753-43.163c0-6.475 4.905-12.262 12.459-14.028 2.845-.687 5.296-1.08 8.632-1.962 6.279-1.668 8.242-4.415 8.242-8.044 0-.981-.198-1.766-.688-2.55.098.588.098 1.08.098 1.667 0 3.924-3.629 7.456-8.928 7.946-2.845.196-5.885.588-8.828.884-.688.098-.98-.197-.98-.785l-.1-4.708c0-.197.1-.393.393-.393.199 0 .295.098.393.294.591.884 1.767 1.766 3.434 1.766 1.373 0 2.158-.785 2.158-1.667 0-.982-.883-1.865-2.647-1.865-3.827 0-5.787 2.649-10.008 2.649-4.609 0-6.18-2.257-6.18-4.415 0-1.766.981-2.845 2.256-3.433-.392.49-.489.883-.489 1.57 0 1.471 1.765 2.648 4.904 2.648 2.944 0 4.807-.686 7.063-.686 2.942 0 4.71.98 5.494 2.059-.098-2.256-1.766-4.218-3.924-4.218-1.471 0-2.062.884-2.255 1.276-.1.294-.297.393-.492.393-.197 0-.394-.098-.394-.294l-.49-4.905c-.098-.588.197-.883.981-.98l5.003-.393c.884 2.452 1.473 3.826 2.747 3.826.686 0 .981-.785.981-1.471 1.079-.295 2.157-.295 3.236-.197-1.274-.882-5.492-.393-6.769-2.157 2.061-.099 3.63-.197 5.296-.197 1.67 0 3.141 0 4.515.197 1.569.195 3.139 1.079 3.139 2.747 0 1.079-.589 1.863-1.667 1.863-.394 0-.688-.098-1.08-.392.098.784.882 1.276 1.667 1.276 1.275 0 2.16-.785 2.16-2.453 0-.883-.198-1.863-.885-2.648 2.061 1.667 3.336 4.609 3.336 8.043 0 5.984-2.157 9.124-8.828 11.478-3.434 1.177-6.181 1.962-9.614 3.237-5.59 2.06-8.927 5.886-8.927 11.282 0 3.728 1.864 7.945 5.788 9.908-5.984-.787-10.202-6.183-10.202-12.168zm5.886 2.55c0-5.296 2.943-8.436 8.633-10.594 3.138-1.177 6.181-2.06 9.025-2.942 6.964-2.453 9.418-6.083 9.418-12.557 0-2.747-.785-5.396-2.061-6.965 2.158 1.864 3.923 4.708 3.923 9.613 0 5.101-1.472 10.301-8.535 12.949-3.334 1.276-5.199 1.962-8.73 3.433-5.492 2.356-7.26 5.495-7.26 9.712 0 4.023 2.159 6.279 3.826 7.652-4.021-.686-8.239-4.807-8.239-10.301zm5.886 2.747c0-3.923 1.864-6.572 6.67-8.828 3.043-1.375 5.298-1.864 8.83-3.335 6.963-2.747 8.73-7.946 8.73-13.93 0-2.061-.295-4.513-1.373-6.573 1.471 1.766 3.236 4.513 3.236 9.908 0 5.592-1.863 10.791-8.044 13.832-2.942 1.374-4.905 2.159-8.239 3.728-3.828 1.963-5.984 4.71-5.984 7.946 0 2.552 1.177 4.515 2.256 5.592-3.728-1.078-6.082-4.609-6.082-8.34zm8.928-38.748c-1.962 0-3.925.099-5.985.294l-2.647-5.199h4.513c0 1.177.882 2.06 1.96 2.06 1.08 0 1.962-.883 1.962-2.06h4.023c0 1.274.784 2.06 1.962 2.06 1.079 0 1.961-1.079 1.961-2.06h4.515l-3.043 5.396c-2.453-.294-5.591-.491-9.221-.491zm-3.63 41.593c0-2.747 1.863-5.001 5.199-6.768 2.354-1.178 4.316-1.963 8.239-3.925 6.181-3.041 8.534-8.043 8.534-14.812 0-1.766-.293-3.238-.588-5.003 1.079 2.158 1.962 4.708 1.962 7.945 0 6.475-2.256 12.755-8.73 16.089-2.747 1.373-4.316 2.258-6.377 3.237-3.138 1.374-4.609 3.53-4.609 6.081 0 1.963.489 3.042.98 3.926-2.844-.784-4.61-3.335-4.61-6.77zm5.002 16.678c0-.981.295-1.57 1.473-1.766-1.373-3.04-2.454-5.003-3.238-6.278-.293-.492 0-.785.394-.785.587 0 1.078.195 1.472.785.685.884 1.568 2.255 2.256 3.531 1.275 2.256 2.06 4.416 2.158 7.555h-.982c-2.06 0-3.533-1.472-3.533-3.042zm6.965 28.155c0-.687.098-1.08.394-1.768-.491-.587-.883-1.568-.883-2.747 0-1.176.587-2.452 1.863-3.236-.392-2.942 1.963-4.905 4.61-4.905 2.944 0 4.415 2.061 4.906 4.121.392 1.471.979 1.963 1.667 2.059 1.274.198 3.334 0 4.119-.193.884-.198 1.275-.689 1.275-2.16 0-2.452-.687-5.688-1.275-8.436-1.47.196-5.101.392-7.848.392-6.082 0-9.516-2.745-10.103-8.73-.197-2.453-.688-4.808-2.16-7.455-1.078-2.061-3.531-4.808-3.531-8.339 0-2.649.981-4.219 4.021-5.689 2.159-.981 4.71-2.158 6.869-3.435-.099 3.435 1.96 8.046 4.609 10.006 2.943 2.159 5.69 2.748 9.712 2.748 4.61 0 9.025-1.375 11.378-4.122-1.373.884-3.236 1.374-5.592 1.374-7.257 0-11.868-5.592-11.868-11.574 0-4.317 2.354-8.144 6.278-11.38 3.236-2.649 6.182-4.316 8.437-6.573 1.47-1.472 2.745-3.237 2.745-5.297 0-2.453-1.666-4.808-3.432-5.494.98-1.177 2.94-2.256 4.708-2.256 2.942 0 5.689 2.158 5.689 5.003 0 2.158-1.275 3.825-2.942 4.61.098 1.668-.982 3.825-2.256 5.199-2.452 2.648-6.966 5.494-9.909 7.848-2.942 2.354-4.511 4.807-4.511 8.143 0 4.414 3.529 7.651 8.043 7.651 4.218 0 7.849-3.237 7.849-7.749 0-4.121-2.943-7.163-7.455-9.222l3.725-2.649c4.023 2.354 8.439 5.591 8.439 12.558 0 9.612-7.75 18.051-20.308 18.051-3.924 0-5.003-.492-7.455-1.473 1.569 1.473 3.236 3.63 3.334 6.277 1.963.591 3.337.885 7.555.885 1.865 0 4.414-.294 6.475-.885 1.472-.392 2.354-.98 2.846-1.667.49.784.784 1.667.784 2.452 0 2.257-1.67 4.022-3.434 4.415.687 6.964 1.275 13.929 1.275 20.209 0 4.708-2.354 7.553-5.69 7.553.196-.196.294-.49.294-.785 0-1.862-2.059-2.747-3.531-2.747-2.941 0-4.511 2.355-7.749 2.355-2.845 0-4.023-2.355-6.181-2.355-1.374 0-2.354.885-2.354 2.061 0 .588.195 1.079.589 1.571-1.863-.001-4.021-1.769-4.021-4.22zm3.827-5.299c-1.864 0-2.845 1.472-2.648 2.649.391-.489 1.175-1.178 2.747-1.178 1.272 0 2.256.589 2.843 1.275 0-1.372-.981-2.746-2.942-2.746zm.883-4.513c-1.569 0-2.356.884-2.452 1.668.392-.196.979-.392 1.863-.392 1.569 0 2.845.882 3.238 1.766.194-1.57-.785-3.042-2.649-3.042zm12.263-63.862c-1.473-.784-2.747-2.452-2.747-4.414 0-2.845 2.451-5.003 5.394-5.003 2.259 0 3.827 1.08 4.808 2.256-1.862.98-3.334 3.334-3.334 5.494 0 2.845 1.472 4.61 2.843 6.082l-3.628 2.649c-2.062-1.865-3.336-4.317-3.336-7.064zM159.633 96.186c0-2.763 2.179-4.445 4.738-4.445 1.019 0 1.656.178 2.163.407V94.3c-.481-.241-1.03-.419-1.819-.419-1.158 0-2.356.738-2.356 2.305 0 1.565 1.312 2.254 2.218 2.254.903 0 1.477-.229 1.972-.497v2.177c-.521.268-1.387.535-2.418.535-2.549-.001-4.498-1.707-4.498-4.469zm8.147 2.418 3.616-4.724h-3.54v-2.025h6.659v1.82l-3.681 4.813h3.745v2.024h-6.8v-1.908zm8.693-6.749h5.971v1.974h-3.477v1.389h3.363v1.923h-3.363v1.4h3.477v1.973h-5.971v-8.659zM184.234 96.186c0-2.763 2.177-4.445 4.736-4.445 1.02 0 1.658.178 2.166.407V94.3a3.856 3.856 0 0 0-1.821-.419c-1.158 0-2.355.738-2.355 2.305 0 1.565 1.311 2.254 2.215 2.254.905 0 1.478-.229 1.975-.497v2.177c-.521.268-1.389.535-2.42.535-2.547-.001-4.496-1.707-4.496-4.469zM195.526 91.855v3.311h2.559v-3.311h2.497v8.658h-2.497v-3.387h-2.559v3.387h-2.497v-8.658h2.497zm11.669 2.026h-2.165v-2.025h6.813v2.025h-2.151v6.633h-2.497v-6.633zm6.262-2.026h5.971v1.974h-3.475v1.389h3.361v1.923h-3.361v1.4h3.475v1.973h-5.971v-8.659zM221.22 96.186c0-2.763 2.178-4.445 4.737-4.445 1.018 0 1.655.178 2.165.407V94.3a3.86 3.86 0 0 0-1.821-.419c-1.157 0-2.354.738-2.354 2.305 0 1.565 1.311 2.254 2.215 2.254.903 0 1.477-.229 1.974-.497v2.177c-.522.268-1.39.535-2.421.535-2.548-.001-4.495-1.707-4.495-4.469zM232.51 91.855v3.311h2.559v-3.311h2.498v8.658h-2.498v-3.387h-2.559v3.387h-2.494v-8.658h2.494zm7.597 0h3.07l2.596 5.17h.038v-5.17h2.496v8.658h-3.043l-2.623-5.194h-.04v5.194h-2.494v-8.658zm10.742 0h2.495v8.658h-2.495v-8.658zM255.379 96.186c0-2.763 2.178-4.445 4.736-4.445 1.02 0 1.656.178 2.167.407V94.3a3.867 3.867 0 0 0-1.822-.419c-1.158 0-2.355.738-2.355 2.305 0 1.565 1.311 2.254 2.215 2.254.905 0 1.478-.229 1.975-.497v2.177c-.522.268-1.387.535-2.418.535-2.549-.001-4.498-1.707-4.498-4.469zM269.165 98.719h-2.762l-.473 1.795h-2.56l2.585-8.658h3.655l2.598 8.658h-2.559l-.484-1.795zm-.472-1.77-.852-3.197h-.114l-.854 3.197h1.82zm4.836-5.094h2.496v6.61h3.094v2.048h-5.59v-8.658zM160.08 112.77v-5.464h2.496v5.236c0 .978.534 1.412 1.234 1.412s1.234-.435 1.234-1.412v-5.236h2.497v5.464c0 2.419-1.694 3.399-3.731 3.399s-3.73-.981-3.73-3.399zm9.927-5.464h3.07l2.597 5.171h.037v-5.171h2.497v8.659h-3.043l-2.624-5.194h-.039v5.194h-2.495v-8.659zm10.742 0h2.495v8.659h-2.495v-8.659zm3.829 0h2.803l1.477 6.481h.052l1.477-6.481h2.8l-2.597 8.659h-3.412l-2.6-8.659zm10.196 0h5.969v1.975h-3.474v1.389h3.361v1.921h-3.361v1.4h3.474v1.975h-5.969v-8.66zm8.246 0h3.974c2.025 0 3.26 1.299 3.26 2.853 0 1.478-1.081 2.127-1.847 2.472l-.012.05c.113.077.316.331.482.61l1.592 2.675h-2.813l-1.504-3.042h-.635v3.042h-2.497v-8.66zm3.502 3.999c.675 0 1.067-.534 1.067-1.082s-.393-1.07-1.067-1.07h-1.006v2.152h1.006zm5.431 4.203v-2.268c.562.395 1.72.892 2.867.892.839 0 1.297-.243 1.297-.675 0-.345-.316-.497-.789-.61-.561-.142-.903-.217-1.554-.384-1.171-.292-1.923-1.133-1.923-2.469 0-1.76 1.593-2.893 3.746-2.893 1.017 0 1.935.204 2.494.446v2.152c-.433-.242-1.312-.573-2.368-.573-.968 0-1.4.243-1.4.624 0 .331.255.497.842.624.433.088.75.142 1.322.28 1.414.345 2.141 1.172 2.141 2.585 0 1.439-1.311 2.929-3.681 2.929-1.299.001-2.294-.267-2.994-.66zm8.668-8.202h2.497v8.659h-2.497v-8.659zM226.947 109.33h-2.164v-2.024h6.812v2.024h-2.151v6.635h-2.497v-6.635zm7.995 3.463-2.932-5.487h2.83l1.361 3.096h.051l1.415-3.096h2.763l-2.994 5.487v3.172h-2.494v-3.172zM160.144 122.757h2.497v8.66h-2.497v-8.66zm5.039 0h3.07l2.598 5.17h.038v-5.17h2.496v8.66h-3.045l-2.621-5.197h-.04v5.197h-2.496v-8.66zM179.119 122.757h3.771c2.023 0 3.285 1.39 3.285 2.979 0 1.593-1.262 2.879-3.285 2.879h-1.275v2.802h-2.495v-8.66zm3.478 3.999c.547 0 1.042-.446 1.042-1.069 0-.61-.495-1.071-1.042-1.071h-.982v2.141h.982zm5.406-3.999h3.973c2.026 0 3.26 1.3 3.26 2.853 0 1.478-1.081 2.127-1.846 2.472l-.014.049c.115.076.318.332.484.612l1.591 2.675h-2.813l-1.503-3.045h-.636v3.045h-2.496v-8.661zm3.502 3.999c.675 0 1.07-.536 1.07-1.083s-.396-1.069-1.07-1.069h-1.006v2.152h1.006zm10.245 2.865h-2.763l-.473 1.796h-2.559l2.585-8.66h3.654l2.6 8.66h-2.56l-.484-1.796zm-.472-1.771-.851-3.194h-.116l-.854 3.194h1.821zm4.453-.763c0-2.827 1.975-4.647 4.915-4.647 1.146 0 1.988.317 2.497.546v2.037c-.473-.252-1.236-.56-2.127-.56-1.619 0-2.56.867-2.56 2.624 0 1.63 1.07 2.368 2.037 2.368.191 0 .382-.026.56-.063v-2.344h2.432v3.833c-.522.268-1.591.739-3.133.739-2.417 0-4.621-1.708-4.621-4.533zM215.608 128.22v-5.463h2.495v5.234c0 .979.536 1.412 1.234 1.412.702 0 1.237-.433 1.237-1.412v-5.234h2.494v5.463c0 2.42-1.692 3.4-3.731 3.4-2.036 0-3.729-.98-3.729-3.4zm9.939-5.463h5.973v1.975h-3.477v1.387h3.361v1.923h-3.361v1.402h3.477v1.974h-5.973v-8.661zM195.02 20.477v22.36h9.253v-22.36h7.979v-6.825h-25.259v6.825h8.027zm29.509-6.825h-9.255v18.412c0 8.154 6.28 11.458 13.833 11.458 7.555 0 13.833-3.304 13.833-11.458V13.652h-9.253v17.639c0 3.305-1.984 4.765-4.58 4.765-2.597 0-4.578-1.459-4.578-4.765V13.652zm-66.09 14.592c0 9.313 7.223 15.064 16.665 15.064 3.823 0 7.034-.901 8.969-1.802v-7.34c-1.841.902-3.966 1.675-7.317 1.675s-8.214-2.319-8.214-7.598c0-5.278 4.438-7.768 8.734-7.768 2.927 0 4.956.601 6.751 1.416v-7.253c-1.889-.773-4.249-1.374-8.027-1.374-9.486.002-17.561 5.667-17.561 14.98"/></svg>