<svg xmlns="http://www.w3.org/2000/svg" width="422.702" height="52.001" fill="none"><path stroke="#fff" stroke-width=".816" d="M.408 51.592V.408h52.871v51.184z"/><path fill="#fff" d="M37.321 48.546c-.142-.19-.225-.353-.225-.57 0-.435.365-.762.9-.762.813 0 1.263.87 2.33.87 1.235 0 1.824-.87 2.947-.87.562 0 1.348.327 1.348 1.006a.401.401 0 0 1-.112.3c1.264 0 2.163-1.034 2.163-2.775 0-2.312-.226-4.868-.479-7.425.675-.135 1.292-.788 1.292-1.631a1.577 1.577 0 0 0-.309-.898c-.196.245-.533.462-1.067.599a9.93 9.93 0 0 1-2.443.326c-1.6 0-2.105-.109-2.864-.326-.028-.98-.674-1.768-1.263-2.312.927.354 1.347.544 2.835.544 4.746 0 7.694-3.1 7.694-6.637 0-2.556-1.684-3.752-3.2-4.596l-1.404.98c1.712.76 2.836 1.876 2.836 3.372 0 1.659-1.376 2.855-2.977 2.855-1.712 0-3.06-1.196-3.06-2.8 0-1.225.59-2.123 1.713-2.992 1.122-.87 2.835-1.904 3.762-2.883.477-.516.899-1.306.842-1.904.618-.3 1.123-.897 1.123-1.686 0-1.034-1.038-1.822-2.161-1.822-.674 0-1.405.407-1.797.816.673.244 1.291 1.115 1.291 2.011 0 .763-.478 1.416-1.039 1.932-.843.816-1.966 1.442-3.201 2.42-1.488 1.197-2.386 2.584-2.386 4.19 0 2.202 1.74 4.242 4.493 4.242.897 0 1.6-.191 2.105-.517-.9 1.006-2.555 1.523-4.324 1.523-1.517 0-2.556-.218-3.679-1.006-1.01-.708-1.796-2.421-1.74-3.672-.815.462-1.798.898-2.612 1.25-1.152.545-1.516 1.117-1.516 2.095 0 1.305.926 2.312 1.348 3.073.562.98.73 1.85.814 2.748.225 2.203 1.517 3.208 3.818 3.208 1.04 0 2.416-.08 2.977-.135.225 1.006.477 2.204.477 3.1 0 .544-.14.708-.477.789-.309.08-1.067.136-1.573.08-.252-.026-.477-.216-.646-.76-.196-.762-.73-1.523-1.852-1.523-1.011 0-1.91.708-1.741 1.795-.477.3-.703.761-.703 1.196 0 .435.142.789.338 1.007a1.373 1.373 0 0 0-.142.652c.03.87.843 1.523 1.546 1.523zm-34.931.218 2.274-1.686 2.78-11.586 1.01-.68 2.22-9.3-.479-2.15c-.56-.109-1.038-.244-1.46-.462L2.39 48.765Zm18.364-2.692a1.438 1.438 0 0 0-1.068-.463c-.589 0-.898.245-1.038.435-.085-.434.309-.98 1.011-.98s1.095.491 1.095 1.008zm-2.949 1.577a1.373 1.373 0 0 1-.14-.652c0-.219.028-.409.112-.571a2.055 2.055 0 0 1-.308-1.09c0-.543.252-1.032.617-1.359l-2.303-9.682a6.609 6.609 0 0 1-1.038-.652c-.533-.436-.814-.762-1.292-1.306-.141-.135-.252-.217-.421-.217-.225 0-.365.135-.31.434l.479 2.23 1.01.68 2.78 11.586zm3.174-3.128c-.141-.326-.647-.652-1.236-.652-.338 0-.562.081-.703.136.029-.3.338-.599.927-.599.703 0 1.068.544 1.011 1.115zM14.463 30.57c-.225-.435-.702-.68-1.263-.68-.226 0-.422.028-.562.082.084-.3.421-.544.9-.544.616 0 1.037.463.925 1.142zm5.25 17.977c-.14-.19-.224-.353-.224-.57 0-.435.365-.762.899-.762.814 0 1.264.87 2.33.87 1.236 0 1.826-.87 2.949-.87.56 0 1.347.327 1.347 1.006a.401.401 0 0 1-.111.3c1.264 0 2.161-1.034 2.161-2.775 0-2.42-.084-3.372-.112-4.704.954-.028 1.91-.518 1.74-1.986a1.35 1.35 0 0 1-.898.326.762.762 0 0 1-.786-.789c0-.217 0-.462.028-.707l4.353-.108a1.29 1.29 0 0 1-.703-1.143c0-.353.142-.625.45-.76-.422-.817-.73-1.47-1.152-2.095-.224-.327-.476-.653-1.011-.653-1.15-.028-3.482.299-4.689.68-.898.3-1.74.925-1.74 2.42 0 1.36.477 3.782.448 7.561 0 .544-.14.708-.477.789-.308.08-1.066.136-1.572.08-.252-.026-.478-.216-.647-.76-.196-.762-.73-1.523-1.852-1.523-1.011 0-1.91.708-1.741 1.795-.477.3-.702.761-.702 1.196 0 .435.14.789.337 1.007a1.373 1.373 0 0 0-.14.652c-.029.87.786 1.523 1.516 1.523zM15.588 29.62c-.028-.708-.59-1.306-1.292-1.442a.989.989 0 0 1 .59-.19.92.92 0 0 1 .927.897c0 .354-.112.544-.225.735zm2.106 7.016c.562 0 1.151-.299 1.713-.815 1.011-.925 2.414-2.34 3.286-2.883.73-.462 1.235-.653 1.712-.653.308 0 .534.081.73.299l1.264-.925c-1.46-1.033-2.106-2.42-2.163-4.106-1.993 1.033-3.453 2.474-5.138 3.861-.31.219-.449.327-.701.327-.253 0-.479-.245-.927-.68-.365-.353-.45-.57-.45-.816 0-.435.141-.572.141-1.143 0-1.142-.927-1.794-1.825-1.794-.73 0-1.292.407-1.488.898-1.011.08-1.63.788-1.63 1.55 0 .19.028.326.085.434-.365.218-.73.653-.73 1.224 0 .599.337 1.197.898 1.36-.084-.108-.111-.245-.111-.434 0-.327.308-.6.701-.6.337 0 .561.11.814.41a8.56 8.56 0 0 0 1.236 1.304c.533.435 1.122.708 1.684 1.034.338.218.59.516.59.924 0 .3-.225.599-.674.708.17.326.534.516.983.516zm-5.756-7.751c.253-.626.842-1.033 1.572-1.197.142-.217.338-.407.534-.544l-1.264-5.113c-.14-.353-.253-.707-.253-1.223 0-.544.113-1.089.113-1.36 0-.245-.14-.327-.309-.327-.113 0-.197 0-.225.027v.164c0 .816-.533 1.469-1.375 1.469-.843 0-1.516-.68-1.516-1.469 0-.788.673-1.441 1.516-1.441.14 0 .337 0 .561.08.253-.652 1.067-1.223 1.937-1.114-.59-.707-1.488-1.142-2.499-1.142-2.162 0-3.875 1.523-3.875 3.644 0 1.986 1.686 3.563 3.763 3.59zM38.36 46.073a1.437 1.437 0 0 0-1.066-.463c-.59 0-.9.245-1.04.435-.083-.434.31-.979 1.011-.979.73 0 1.095.49 1.095 1.007zm.226-1.55c-.142-.327-.618-.653-1.237-.653-.336 0-.56.081-.701.136.028-.3.336-.599.927-.599.701 0 1.094.544 1.01 1.115zm-23.812-25.35c.028-1.005-.42-1.549-1.039-1.794.112-.027.253-.109.478-.109.477 0 1.01.409 1.01 1.006-.028.326-.141.68-.45.898zm19.712 18.604h.364c-.028-1.143-.336-1.931-.813-2.774-.253-.463-.59-.98-.843-1.306a.626.626 0 0 0-.561-.3c-.142 0-.253.11-.142.3.31.463.703 1.197 1.236 2.312-.448.08-.562.299-.562.653 0 .57.562 1.115 1.32 1.115zM23.057 27.605l1.178-.626c.422-2.42 1.91-4.107 4.494-4.705-1.376.082-2.556.11-4.24.191-1.797.08-4.718.3-6.768.435-.421.027-.674-.108-.786-.435-.112-.354-.337-1.034-.365-1.442-.028-.326.028-.543.337-.76.59-.41 1.18-.871 1.18-1.85 0-1.034-.928-1.741-1.798-1.741-.308 0-.533.027-.702.109-.224-.137-.45-.245-.9-.245-.616 0-1.178.408-1.346.708-1.067-.083-1.938.68-1.854 1.685.142-.135.45-.3.787-.3.421 0 .786.3.786.708s-.085.898-.085 1.442c0 1.658 1.377 2.53 1.377 3.372a.778.778 0 0 1-.786.789c.252.897 1.122 1.36 2.274 1.36.73 0 1.404-.082 2.499-.082 3.116.081 4.437.408 4.718 1.387zm-6.852-8.594c.14-.327.196-.599.196-.816 0-.463-.224-.898-.449-1.088.561 0 1.04.408 1.04.924 0 .518-.338.843-.787.98zm12.467 13c-1.488-.708-2.19-2.258-2.19-3.645 0-1.985 1.264-3.372 3.37-4.134 1.29-.462 2.33-.761 3.649-1.196 2.527-.87 3.342-2.013 3.342-4.215 0-1.252-.477-2.34-1.264-2.965.253.3.338.653.338.98 0 .597-.338.896-.815.896-.308 0-.59-.19-.646-.462.142.11.253.136.422.136.421 0 .646-.299.646-.68 0-.598-.59-.925-1.18-1.006-.534-.081-1.066-.081-1.712-.081-.647 0-1.236.027-1.994.08.477.654 2.078.463 2.555.789-.42-.026-.814-.026-1.236.082 0 .244-.112.544-.365.544-.477 0-.701-.516-1.039-1.415l-1.91.137c-.308.027-.42.135-.363.354l.196 1.794c0 .082.084.11.14.11.056 0 .14-.028.197-.136a.928.928 0 0 1 .842-.463c.814 0 1.46.707 1.489 1.55-.31-.408-.956-.762-2.079-.762-.842 0-1.572.245-2.667.245-1.18 0-1.853-.435-1.853-.979 0-.244.028-.408.196-.57-.477.217-.842.625-.842 1.25 0 .79.59 1.632 2.33 1.632 1.601 0 2.33-.98 3.79-.98.675 0 1.011.327 1.011.681 0 .327-.308.598-.813.598a1.563 1.563 0 0 1-1.292-.653c-.029-.08-.084-.109-.14-.109-.112 0-.141.082-.141.137l.028 1.74c0 .218.112.327.365.3 1.123-.11 2.274-.245 3.342-.327 1.993-.19 3.37-1.469 3.37-2.91 0-.217 0-.408-.03-.626.198.3.254.571.254.925 0 1.333-.73 2.34-3.117 2.965-1.264.326-2.19.462-3.285.708-2.92.733-4.774 2.854-4.774 5.22 0 2.204 1.6 4.189 3.875 4.46zm1.488.273c-.617-.518-1.46-1.334-1.46-2.803 0-1.55.674-2.692 2.752-3.562 1.347-.544 2.05-.788 3.314-1.251 2.667-.98 3.228-2.883 3.228-4.76 0-1.795-.673-2.855-1.488-3.536.477.572.787 1.551.787 2.558 0 2.365-.927 3.698-3.567 4.595-1.067.327-2.217.653-3.425 1.088-2.163.789-3.257 1.93-3.257 3.89-.029 2.012 1.572 3.508 3.116 3.78zm1.405.27a2.848 2.848 0 0 1-.843-2.04c0-1.195.814-2.202 2.275-2.909 1.263-.57 1.993-.87 3.116-1.36 2.331-1.115 3.06-3.019 3.06-5.085 0-1.986-.673-2.992-1.234-3.645.42.761.532 1.659.532 2.42 0 2.203-.673 4.107-3.312 5.114-1.349.544-2.19.707-3.342 1.223-1.825.817-2.527 1.795-2.527 3.237-.029 1.36.87 2.665 2.274 3.045zm1.46.463c-.197-.326-.365-.707-.365-1.441 0-.925.56-1.74 1.74-2.23.787-.354 1.375-.68 2.416-1.197 2.442-1.223 3.312-3.536 3.312-5.901 0-1.197-.336-2.122-.73-2.912.113.653.225 1.198.225 1.85 0 2.476-.899 4.325-3.229 5.44-1.488.707-2.218 1.007-3.116 1.441-1.264.653-1.967 1.469-1.967 2.475-.055 1.251.618 2.204 1.714 2.475zM36.14 15.45l1.152-1.987h-1.714c0 .354-.336.762-.73.762-.448 0-.73-.299-.73-.762h-1.516a.744.744 0 0 1-.73.762c-.421 0-.73-.326-.73-.762H29.43l1.011 1.905c.787-.082 1.516-.11 2.275-.11 1.291.028 2.498.081 3.425.19zm7.357 7.097 1.375-.979c-.533-.544-1.066-1.197-1.066-2.23 0-.788.562-1.658 1.263-2.012-.365-.435-.954-.816-1.824-.816-1.123 0-2.05.788-2.05 1.822 0 .707.477 1.333 1.039 1.632 0 1.006.477 1.904 1.263 2.583zm20.805 21.039h2.331l1.545-1.686h-1.91l-.759.816h-.056l-.758-.816h-1.91zm1.208 8.023c.926 0 1.684-.217 2.133-.462V49.27c-.449.218-.954.435-1.74.435-.814 0-1.966-.598-1.966-1.93 0-1.333 1.068-1.985 2.078-1.985.702 0 1.18.162 1.628.354v-1.85c-.449-.191-1.01-.354-1.909-.354-2.274 0-4.212 1.441-4.212 3.808 0 2.392 1.714 3.861 3.988 3.861zm5.363-.135h3.032l2.303-7.452H73.71l-1.32 5.575h-.056l-1.32-5.575h-2.47zm9.996.19c1.797 0 3.314-.843 3.314-2.91v-4.705h-2.22v4.487c0 .843-.476 1.223-1.094 1.223-.617 0-1.095-.38-1.095-1.223v-4.488h-2.218v4.706c0 2.067 1.488 2.91 3.313 2.91zm6.6-.19h2.217V45.76h1.91v-1.74H85.56v1.74h1.91zm9.546 0h3.032l2.303-7.452h-2.499l-1.32 5.575h-.057l-1.319-5.575h-2.499Zm9.575 0h2.218v-2.395h1.124c1.796 0 2.919-1.115 2.919-2.475s-1.123-2.557-2.92-2.557h-3.341v7.426zm2.218-3.998v-1.85h.87a.926.926 0 1 1 0 1.85zm5.7 3.998h2.219v-2.611h.56l1.32 2.61h2.5l-1.404-2.284c-.14-.244-.337-.463-.422-.516v-.055c.674-.3 1.63-.843 1.63-2.122 0-1.332-1.096-2.447-2.893-2.447h-3.51zm2.19-3.998v-1.85h.899c.59 0 .954.435.954.925 0 .462-.336.925-.954.925zm10.417 3.998h2.275l-2.302-7.452h-3.23l-2.302 7.452h2.274l.422-1.55h2.443zm-2.442-3.073.758-2.748h.112l.759 2.747h-1.629zm5.334 3.073h6.038v-1.74h-3.313l3.257-4.135V44.02h-5.897v1.74h3.145l-3.201 4.053v1.658h-.029zm7.75 0h5.308v-1.687h-3.09v-1.197h2.978V46.93h-2.977v-1.197h3.089v-1.686h-5.307v7.425zM61.973 40.322h5.307v-1.686h-3.088v-1.197h2.976v-1.658H64.19v-1.197h3.09v-1.687h-5.308v7.425zm7.302 0h4.969v-1.767H71.49v-5.684h-2.216v7.451zm6.092 0h5.307v-1.686h-3.088v-1.197h2.976v-1.658h-2.976v-1.197h3.088v-1.687h-5.307zm14.405 0-2.611-3.834 2.555-3.59H87.02l-2.134 3.426v-3.427h-2.219v7.452h2.22v-3.59l2.217 3.59h2.669v-.027zm2.219 0h2.218v-5.711h1.91v-1.74H90.08v1.74h1.909v5.711zm5.56 0h2.217v-2.61h.562l1.32 2.61h2.498l-1.404-2.285c-.14-.244-.336-.462-.42-.515v-.056c.673-.299 1.628-.843 1.628-2.12 0-1.334-1.094-2.449-2.892-2.449h-3.538v7.425zm2.217-3.998v-1.85h.899a.93.93 0 0 1 .954.926c0 .462-.336.924-.954.924zm9.406 4.189c2.303 0 3.82-1.415 3.82-3.89 0-2.474-1.545-3.889-3.82-3.889-2.274 0-3.846 1.415-3.846 3.89s1.545 3.889 3.846 3.889zm0-1.904c-.982 0-1.488-.762-1.488-1.986 0-1.223.506-1.985 1.488-1.985.984 0 1.461.762 1.461 1.985 0 1.224-.477 1.986-1.46 1.986zm6.515 1.713h2.218v-5.711h1.91v-1.74h-6.037v1.74h1.91zm5.56 0h5.307v-1.686h-3.089v-1.197h2.977v-1.658h-2.977v-1.197h3.09v-1.687h-5.308zm10.867.136c.926 0 1.684-.217 2.134-.463V38.12c-.45.218-.955.435-1.74.435-.815 0-1.967-.597-1.967-1.93s1.068-1.986 2.078-1.986c.702 0 1.18.164 1.629.354v-1.85c-.45-.19-1.01-.354-1.91-.354-2.274 0-4.212 1.442-4.212 3.808 0 2.394 1.714 3.861 3.988 3.861zm3.818-7.56v7.451h2.219v-2.91h2.274v2.911h2.218v-7.453h-2.218v2.856h-2.274v-2.856zm8.957 7.424h2.22v-4.46h.028l2.33 4.46h2.696v-7.451h-2.22v4.433h-.027l-2.302-4.434h-2.725zm9.52 0h2.218v-7.451h-2.218zm8.003.136c.926 0 1.684-.217 2.134-.463V38.12c-.45.218-.956.435-1.742.435-.814 0-1.965-.597-1.965-1.93s1.067-1.986 2.078-1.986c.702 0 1.179.164 1.629.354v-1.85c-.45-.19-1.011-.354-1.91-.354-2.274 0-4.212 1.442-4.212 3.808 0 2.394 1.74 3.861 3.988 3.861zm10.922-.136-2.61-3.834 2.554-3.59h-2.695l-2.134 3.426v-3.427h-2.22v7.452h2.22v-3.59l2.217 3.59h2.668zm6.121-9.573h-2.583l-.898 1.686h1.88zm-.645 9.573h2.274l-2.302-7.451h-3.23l-2.302 7.451h2.275l.42-1.55h2.444zm-2.443-3.046.758-2.746h.112l.758 2.746zM61.972 21.747v7.451h2.219v-2.882h3.004v-1.66h-3.004v-1.224h3.032v-1.686h-5.25zm11.288 7.451h2.275l-2.303-7.45h-3.229l-2.302 7.45h2.274l.422-1.55h2.442l.421 1.551zm-2.443-3.073.758-2.746h.112l.731 2.746zm13 3.073-2.61-3.834 2.555-3.59h-2.696l-2.133 3.427v-3.454h-2.219v7.451h2.218V25.61l2.22 3.588zm4.354.164c1.797 0 3.313-.843 3.313-2.91v-4.705h-2.219v4.488c0 .843-.477 1.223-1.094 1.223-.618 0-1.095-.38-1.095-1.223v-4.489h-2.219v4.706c0 2.067 1.516 2.91 3.314 2.91zm5.503-.164h4.97v-1.767h-2.751v-5.684h-2.22zm6.74 0h2.217v-5.711h1.91v-1.74h-6.037v1.741h1.91v5.711zm9.715 0h2.274l-2.303-7.45h-3.228l-2.303 7.45h2.274l.422-1.55h2.442l.422 1.551zm-2.444-3.073.759-2.746h.112l.758 2.746zM214.443.001h1.394v52h-1.394zm75.578 46.944v-14.9c0-3.113-1.317-4.671-3.948-4.672-2.631 0-3.95 1.556-3.954 4.672v14.9h-7.775v-14.9c0-3.113-1.295-4.671-3.886-4.672-2.636 0-3.952 1.556-3.947 4.672v14.9h-7.776v-15.78c0-3.25 1.157-5.71 3.469-7.38 2.034-1.49 4.786-2.237 8.254-2.237 3.515 0 6.105.88 7.77 2.642 1.433-1.761 4.047-2.642 7.84-2.642 3.467 0 6.218.746 8.252 2.237 2.312 1.668 3.468 4.129 3.47 7.38v15.78zm95.217-.07V4.313h7.776v42.561h-7.776zm-9.91 0v-2.507c-.694.903-1.874 1.626-3.538 2.169-1.361.475-2.792.727-4.237.745-3.702 0-6.676-1.244-8.92-3.73-2.244-2.484-3.366-5.558-3.367-9.22 0-3.612 1.094-6.647 3.298-9.083 1.952-2.153 5.124-3.66 8.78-3.66 4.12 0 6.525 1.515 7.985 3.253V4.312h7.567v42.562h-7.567zm0-14.164c0-1.355-.657-2.655-1.973-3.899-1.315-1.243-2.668-1.865-4.06-1.865-1.988 0-3.56.792-4.719 2.373-1.019 1.405-1.528 3.121-1.527 5.151 0 1.99.51 3.684 1.527 5.085 1.156 1.627 2.73 2.441 4.72 2.439 1.204 0 2.51-.553 3.923-1.66 1.411-1.108 2.116-2.25 2.114-3.422zM340.62 47.553c-3.934 0-7.185-1.22-9.752-3.66-2.568-2.44-3.854-5.58-3.86-9.42 0-3.84 1.285-6.98 3.855-9.422 2.568-2.442 5.82-3.663 9.752-3.66 3.933 0 7.196 1.22 9.789 3.66 2.593 2.44 3.888 5.58 3.887 9.421 0 3.841-1.295 6.982-3.887 9.421-2.592 2.439-5.853 3.659-9.784 3.66zm0-20.062c-1.873 0-3.313.692-4.32 2.078-1.006 1.385-1.51 3.032-1.51 4.938 0 1.907.47 3.518 1.41 4.834 1.078 1.5 2.552 2.249 4.427 2.247 1.874-.002 3.349-.75 4.424-2.246.984-1.316 1.475-2.927 1.475-4.835 0-1.907-.47-3.52-1.41-4.835-1.077-1.455-2.575-2.182-4.496-2.181zm-28.113 20.062c-3.933 0-7.185-1.22-9.754-3.66-2.57-2.44-3.853-5.58-3.852-9.42 0-3.84 1.284-6.98 3.852-9.422 2.568-2.442 5.82-3.663 9.754-3.66 3.932 0 7.195 1.22 9.788 3.66 2.595 2.44 3.891 5.58 3.887 9.421 0 3.841-1.296 6.982-3.887 9.421-2.59 2.439-5.852 3.659-9.788 3.66zm0-20.062c-1.873 0-3.314.692-4.321 2.078-1.008 1.385-1.51 3.032-1.51 4.938 0 1.907.47 3.518 1.41 4.834 1.076 1.5 2.552 2.249 4.427 2.247 1.875-.002 3.35-.75 4.425-2.246.981-1.316 1.472-2.927 1.472-4.835 0-1.907-.47-3.52-1.41-4.835-1.075-1.455-2.572-2.182-4.493-2.181zm89.716 9.286c.165 1.806 2.572 5.693 6.528 5.693 3.85 0 5.67-2.17 5.76-3.05l8.192-.068c-.894 2.668-4.525 8.337-14.097 8.337-3.98 0-7.623-1.21-10.239-3.627-2.616-2.416-3.92-5.567-3.92-9.454 0-4.022 1.306-7.218 3.92-9.59s6.005-3.558 10.172-3.558c4.534 0 8.074 1.468 10.62 4.405 2.361 2.709 3.542 6.346 3.54 10.91zm12.704-4.68c-.324-1.628-1.019-2.957-2.082-4-1.204-1.128-2.593-1.693-4.165-1.694-1.621 0-2.975.543-4.063 1.628-1.087 1.084-1.815 2.44-2.184 4.067h12.494z" style="stroke-width:1.01087"/><path fill="#fff" d="m270.91 20.181 7.633-5.446-.098-.331c-13.774 1.648-20.038 2.816-31.902 9.531l.11.305.944.01c-.087.926-.237 3.218-.045 6.664-1.316 3.72-.033 6.246 1.172 8.995.19-2.86.17-5.99-.728-9.107-.19-3.423-.034-5.673.05-6.549l7.866.074a34.365 34.365 0 0 0 .233 4.5c7.028 2.412 14.096-.007 17.849-5.95-1.043-1.14-3.084-2.696-3.084-2.696z"/></svg>